<svg width="22" height="22" viewBox="0 0 22 22" fill="none" xmlns="http://www.w3.org/2000/svg">
<rect width="22" height="22" rx="8" fill="white" fill-opacity="0.9"/>
<path d="M4.4375 12.3125C4.19589 12.3125 4 12.5084 4 12.75C4 12.9916 4.19589 13.1875 4.4375 13.1875H14.7341C14.5852 13.4449 14.5 13.7437 14.5 14.0625C14.5 15.029 15.2835 15.8125 16.25 15.8125C17.2165 15.8125 18 15.029 18 14.0625C18 13.096 17.2165 12.3125 16.25 12.3125H4.4375Z" fill="#C01B3C"/>
<path d="M13.9558 10.935C13.8963 11.1671 14.0366 11.4074 14.2753 11.4279C14.7065 11.4649 15.1426 11.3949 15.5438 11.2211C16.0784 10.9894 16.5208 10.5864 16.8012 10.0755C17.0815 9.56471 17.184 8.97512 17.0923 8.39966C17.0007 7.8242 16.7202 7.29559 16.295 6.89713C15.8698 6.49867 15.3241 6.25301 14.7439 6.19886C14.1637 6.14471 13.582 6.28515 13.0905 6.59805C12.5989 6.91094 12.2254 7.37851 12.0288 7.92707C11.8814 8.3387 11.8398 8.77837 11.9047 9.20625C11.9406 9.44315 12.1895 9.56755 12.4172 9.49312C12.645 9.41869 12.7634 9.17263 12.7469 8.93359C12.7303 8.6929 12.7633 8.44979 12.8457 8.21975C12.9773 7.85252 13.2273 7.53951 13.5564 7.33004C13.8855 7.12057 14.2749 7.02655 14.6633 7.0628C15.0517 7.09905 15.417 7.26351 15.7017 7.53026C15.9863 7.79701 16.1741 8.15088 16.2354 8.53612C16.2968 8.92136 16.2282 9.31607 16.0405 9.65804C15.8528 10 15.5567 10.2698 15.1987 10.4249C14.9745 10.5221 14.7341 10.5708 14.4928 10.5698C14.2532 10.5688 14.0153 10.7029 13.9558 10.935Z" fill="#C01B3C"/>
<path d="M5.75 11C5.75 10.7584 5.94588 10.5625 6.1875 10.5625H14.5V11.4375H6.1875C5.94588 11.4375 5.75 11.2416 5.75 11Z" fill="#C01B3C"/>
<path d="M6.625 14.5C6.625 14.2584 6.82088 14.0625 7.0625 14.0625H11.4375C11.6791 14.0625 11.875 14.2584 11.875 14.5C11.875 14.7416 11.6791 14.9375 11.4375 14.9375H7.0625C6.82088 14.9375 6.625 14.7416 6.625 14.5Z" fill="#C01B3C"/>
<path d="M9.6875 9.6875C10.4124 9.6875 11 9.09988 11 8.375C11 7.65012 10.4124 7.0625 9.6875 7.0625C8.96262 7.0625 8.375 7.65012 8.375 8.375C8.375 8.52841 8.40128 8.67565 8.44966 8.8125H4.4375C4.19589 8.8125 4 9.00837 4 9.25C4 9.49163 4.19589 9.6875 4.4375 9.6875H9.6875Z" fill="#C01B3C"/>
</svg>
